<?xml version="1.0" standalone="no"?>
<!DOCTYPE svg PUBLIC "-//W3C//DTD SVG 20010904//EN"
 "http://www.w3.org/TR/2001/REC-SVG-20010904/DTD/svg10.dtd">
<svg version="1.0" xmlns="http://www.w3.org/2000/svg"
 width="1210.651625pt" height="364.304275pt" viewBox="0 0 1210.651625 364.304275"
 preserveAspectRatio="xMidYMid meet">
<metadata>
Created by potrace 1.12, written by Peter Selinger 2001-2015
</metadata>
<g transform="translate(-17.073596,420.058572) scale(0.100000,-0.100000)"
fill="#000000" stroke="none">
<path d="M3679 4182 c13 -10 55 -29 95 -41 156 -50 562 -231 586 -262 3 -3 21
-14 40 -24 19 -10 87 -51 150 -91 387 -244 570 -451 570 -642 0 -52 -30 -165
-84 -318 -39 -109 -57 -202 -38 -190 14 8 139 197 149 223 3 10 11 25 18 33 6
8 24 44 39 80 16 36 35 79 42 95 47 103 57 220 25 283 -10 20 -75 91 -143 157
-227 222 -424 350 -799 524 -157 72 -471 165 -629 186 l-45 6 24 -19z"/>
<path d="M4012 3858 c41 -225 177 -472 356 -646 76 -74 133 -112 253 -170 65
-32 66 -33 82 -91 22 -79 89 -216 132 -270 46 -57 46 -37 1 97 -40 117 -61
236 -52 285 7 36 23 54 67 76 23 11 58 61 43 61 -2 0 -33 -9 -67 -21 -173 -59
-370 26 -543 233 -89 106 -143 199 -209 357 -32 78 -62 141 -65 141 -4 0 -3
-23 2 -52z"/>
<path d="M4510 3695 c-1 -91 25 -232 58 -310 64 -153 209 -200 309 -101 52 52
61 85 39 134 -18 38 -82 96 -97 87 -4 -3 -10 -20 -14 -38 -4 -17 -12 -49 -17
-69 -11 -37 -13 -38 -57 -38 -93 0 -132 50 -172 221 -12 52 -27 105 -35 119
l-13 25 -1 -30z"/>
<path d="M820 2946 c-75 -17 -127 -46 -186 -103 -30 -31 -68 -56 -99 -67 -182
-66 -304 -197 -350 -376 -24 -92 -17 -290 13 -378 54 -160 158 -287 280 -345
63 -30 74 -32 177 -32 99 0 116 3 167 27 33 15 78 48 103 75 113 119 144 218
200 645 16 120 31 178 45 178 9 0 27 -141 36 -290 9 -145 9 -145 17 -148 25
-10 52 36 126 208 77 181 91 210 101 210 12 0 15 17 -24 -140 -72 -286 -86
-507 -38 -616 26 -58 87 -104 137 -104 l32 0 -30 59 c-41 84 -56 167 -57 316
0 318 95 629 219 711 34 22 39 29 30 45 -9 18 -11 18 -47 -4 -20 -12 -50 -29
-65 -37 -61 -31 -150 -133 -204 -235 -58 -110 -100 -177 -106 -168 -3 5 -10
51 -16 103 -33 295 -129 433 -326 469 -68 13 -64 13 -135 -3z m173 -69 c80
-47 146 -144 147 -215 0 -18 -11 -78 -25 -135 -13 -56 -26 -115 -29 -132 -3
-16 -7 -39 -10 -50 -3 -11 -12 -60 -22 -110 -22 -122 -69 -275 -104 -344 -81
-160 -218 -240 -361 -212 -81 16 -133 46 -206 116 -122 118 -176 248 -177 425
0 190 60 324 194 431 96 76 169 103 156 57 -4 -13 -12 -62 -18 -110 -11 -77
-10 -94 6 -143 22 -71 87 -152 151 -188 65 -36 134 -34 220 8 33 16 64 31 69
33 15 7 -1 -54 -33 -125 -49 -112 -143 -187 -249 -200 -131 -15 -224 78 -252
253 -6 38 -15 73 -20 78 -8 8 -12 -3 -25 -67 -5 -28 20 -121 43 -158 29 -48
79 -93 132 -121 62 -32 174 -32 242 0 105 49 196 193 205 321 3 36 16 104 30
149 19 63 23 89 15 105 -10 22 -10 22 -17 2 -20 -59 -34 -59 -54 -1 -38 113
-153 215 -267 237 -32 7 -63 16 -68 20 -18 17 40 64 119 96 49 21 156 10 208
-20z m-190 -160 c134 -66 224 -246 173 -346 -16 -29 -71 -70 -124 -91 -58 -23
-153 5 -200 59 -74 85 -101 223 -67 347 13 50 21 63 38 66 47 7 125 -9 180
-35z"/>
<path d="M5840 2709 c-113 -7 -183 -25 -271 -69 -144 -73 -245 -184 -302 -329
-49 -126 -38 -274 25 -352 14 -17 78 -59 90 -59 14 0 38 47 33 62 -4 9 -27 30
-52 48 -78 57 -98 132 -67 254 61 235 332 418 600 404 94 -4 145 -26 180 -77
61 -89 2 -253 -111 -310 -48 -24 -175 -42 -175 -25 1 10 64 255 76 293 7 22 5
24 -22 18 -16 -3 -57 -9 -91 -13 -73 -8 -100 -28 -59 -44 18 -6 26 -17 26 -33
0 -22 -116 -494 -142 -577 -6 -19 -21 -59 -34 -88 -26 -56 -57 -77 -131 -89
-19 -3 -33 -12 -33 -19 0 -11 37 -14 193 -16 105 -1 215 -1 242 1 108 5 222
58 300 138 52 54 71 92 87 167 22 110 -35 210 -138 243 -30 9 -54 19 -54 23 0
3 15 11 33 18 48 18 127 90 148 136 11 24 19 64 19 97 0 46 -5 63 -29 96 -43
60 -111 95 -201 105 -19 2 -82 1 -140 -3z m105 -520 c77 -21 115 -76 115 -168
0 -81 -30 -157 -84 -213 -60 -63 -119 -82 -240 -76 -112 5 -123 10 -96 46 28
39 62 137 100 290 l33 132 66 0 c36 0 84 -5 106 -11z"/>
<path d="M4541 2609 c-52 -10 -122 -50 -150 -85 -80 -102 -43 -263 118 -504
142 -213 262 -477 336 -735 104 -369 122 -417 219 -588 l77 -137 95 0 c51 0
94 2 94 4 0 4 -26 69 -40 101 -99 223 -146 373 -200 630 -31 153 -39 181 -82
300 -45 122 -73 207 -82 246 -9 39 -33 224 -41 312 -4 42 -11 77 -15 77 -17 0
-32 -115 -26 -187 9 -113 32 -209 97 -406 109 -334 166 -607 127 -607 -18 0
-66 103 -108 230 -115 344 -168 476 -294 730 -55 113 -109 228 -119 256 -22
67 -22 156 0 197 23 42 96 113 152 149 l45 28 -80 -1 c-43 -1 -99 -5 -123 -10z"/>
<path d="M10870 2557 c-13 -7 -29 -25 -35 -41 -8 -24 -6 -31 15 -48 42 -34
110 2 110 58 0 39 -44 54 -90 31z"/>
<path d="M2953 2535 c-11 -8 -23 -23 -26 -34 -6 -25 18 -61 41 -61 45 1 77 64
47 94 -20 20 -34 20 -62 1z"/>
<path d="M10170 2523 c-60 -9 -149 -46 -194 -81 -108 -82 -167 -190 -241 -441
-41 -140 -75 -214 -108 -235 -12 -7 -46 -20 -74 -27 -101 -25 -62 -34 139 -34
106 0 275 -4 375 -9 229 -11 274 -1 326 74 38 55 7 130 -49 116 -23 -6 -25
-11 -21 -39 3 -18 8 -42 12 -53 5 -16 0 -28 -17 -44 -21 -20 -30 -21 -93 -16
-38 3 -106 12 -150 20 -94 18 -189 20 -269 5 -32 -6 -60 -8 -63 -5 -3 2 9 24
25 48 20 28 56 120 102 257 72 220 109 301 164 359 67 72 119 79 212 27 69
-39 86 -42 104 -20 38 46 -84 112 -180 98z"/>
<path d="M8618 2386 c-48 -15 -52 -19 -74 -93 l-18 -63 -63 0 c-52 0 -64 -3
-73 -20 -10 -18 -6 -19 52 -22 49 -2 63 -6 62 -18 -1 -8 -22 -80 -48 -158 -54
-171 -65 -226 -54 -269 15 -57 74 -55 203 8 106 52 175 98 169 114 -4 11 -21
5 -77 -25 -40 -21 -92 -44 -116 -51 -82 -24 -84 11 -10 244 23 73 46 137 51
144 6 7 43 13 91 15 65 2 82 6 82 18 0 12 -16 15 -75 17 -41 1 -78 2 -82 2 -4
1 4 33 18 73 36 106 35 107 -38 84z"/>
<path d="M2673 2271 c-38 -28 -86 -77 -135 -141 -15 -19 -29 -32 -32 -29 -3 3
1 29 9 59 22 82 20 100 -11 100 -40 0 -128 -48 -175 -96 -50 -51 -36 -60 17
-11 46 41 73 52 81 31 4 -12 -71 -345 -103 -456 -5 -15 2 -18 40 -18 25 0 46
2 46 3 0 19 74 290 86 315 9 19 43 61 77 95 47 47 74 66 110 76 56 16 79 35
75 64 -5 35 -42 39 -85 8z"/>
<path d="M2170 2265 c-9 -10 -32 -15 -75 -15 -142 0 -275 -107 -356 -286 -64
-141 -40 -274 48 -274 31 0 116 47 161 90 49 45 67 51 55 18 -4 -13 -8 -41 -8
-63 0 -39 1 -40 33 -39 41 2 108 38 161 86 23 21 41 40 41 43 0 8 -28 6 -32
-3 -5 -13 -74 -52 -92 -52 -11 0 -16 9 -16 28 0 41 36 202 75 339 19 67 35
127 35 133 0 15 -16 12 -30 -5z m-84 -88 c7 -7 -58 -242 -78 -281 -38 -77 -99
-126 -156 -126 -43 0 -57 24 -57 94 1 126 73 266 160 311 26 14 118 15 131 2z"/>
<path d="M4035 2266 c-11 -7 -51 -15 -90 -17 -44 -3 -84 -12 -108 -24 -169
-89 -304 -329 -262 -466 11 -35 45 -69 71 -69 45 0 114 39 184 104 23 21 43
36 45 34 3 -2 -3 -27 -12 -55 -29 -90 1 -105 103 -53 51 26 134 91 134 105 0
13 -25 2 -65 -26 -59 -43 -80 -37 -77 21 4 53 63 300 92 384 28 82 26 91 -15
62z m-85 -96 c0 -33 -62 -248 -84 -290 -27 -52 -104 -110 -147 -110 -57 0 -75
76 -44 193 28 109 86 192 150 215 44 16 125 11 125 -8z"/>
<path d="M7414 2270 c-6 -6 -48 -12 -95 -14 -129 -6 -215 -46 -320 -149 -84
-81 -131 -164 -144 -252 -11 -70 0 -107 40 -134 61 -41 147 -16 268 76 32 25
60 43 63 40 3 -2 -4 -28 -15 -58 -15 -39 -18 -56 -10 -66 32 -37 158 9 293
108 5 4 6 12 2 17 -4 7 -25 0 -58 -19 -64 -38 -105 -47 -114 -26 -8 22 30 169
83 322 61 175 59 165 36 165 -10 0 -24 -5 -29 -10z m-94 -90 c0 -29 -83 -260
-105 -292 -49 -72 -146 -120 -208 -104 -55 14 -59 125 -7 234 58 123 128 172
248 172 43 0 72 -4 72 -10z"/>
<path d="M10717 2256 c-32 -13 -83 -43 -114 -66 -47 -36 -53 -44 -39 -52 12
-7 25 -2 49 18 18 15 47 33 66 41 52 22 60 5 32 -69 -61 -164 -101 -294 -107
-347 -6 -56 -5 -60 19 -76 21 -13 32 -14 66 -5 74 20 219 116 202 133 -7 7
-28 -1 -66 -26 -71 -48 -99 -52 -103 -15 -2 15 27 114 63 220 77 223 83 247
64 259 -24 15 -72 9 -132 -15z"/>
<path d="M11165 2262 c-86 -30 -209 -112 -188 -125 6 -4 34 9 61 28 28 19 62
37 76 41 23 5 26 3 26 -21 0 -25 -82 -323 -115 -414 -8 -24 -15 -47 -15 -52 0
-5 25 -9 55 -9 l54 0 25 83 c14 45 35 115 47 156 31 104 78 158 193 216 136
69 142 54 67 -163 -76 -216 -81 -250 -48 -286 29 -32 37 -32 107 -3 85 35 202
127 161 127 -4 0 -35 -18 -67 -40 -33 -22 -70 -40 -83 -40 -23 0 -24 2 -18 49
3 27 31 117 63 202 70 188 75 218 43 248 -31 29 -76 23 -162 -21 -67 -33 -178
-105 -189 -122 -17 -25 -19 8 -4 74 9 39 14 75 11 81 -9 14 -44 11 -100 -9z"/>
<path d="M12065 2267 c-100 -34 -176 -100 -244 -214 -47 -79 -78 -198 -67
-255 15 -81 76 -115 173 -97 100 19 302 134 277 158 -5 6 -43 -7 -99 -35 -50
-25 -109 -48 -132 -51 -35 -5 -45 -2 -67 20 -21 21 -26 36 -26 76 0 60 12 73
82 97 93 30 222 98 260 136 58 58 63 121 14 154 -33 21 -122 27 -171 11z m76
-67 c30 -41 11 -87 -57 -140 -29 -23 -149 -80 -168 -80 -19 0 -20 3 -2 61 23
74 53 125 93 158 48 40 106 40 134 1z"/>
<path d="M2835 2241 c-63 -32 -76 -41 -113 -83 -39 -43 -7 -42 43 2 78 67 92
48 55 -71 -37 -123 -80 -301 -80 -335 0 -39 19 -64 47 -64 25 0 103 48 152 92
23 21 41 40 41 43 0 16 -37 0 -68 -30 -22 -21 -45 -34 -57 -33 -29 4 -23 54
26 228 59 207 65 238 53 258 -17 26 -34 25 -99 -7z"/>
<path d="M3460 2255 c-9 -11 -10 -30 -4 -68 20 -126 7 -198 -67 -364 -27 -62
-39 -67 -39 -17 0 111 -40 265 -98 377 -46 90 -60 93 -157 32 -41 -25 -75 -53
-75 -61 0 -19 9 -18 45 6 46 30 79 26 110 -14 54 -71 97 -241 99 -396 1 -97
-1 -109 -26 -155 -35 -63 -53 -84 -107 -123 -47 -34 -89 -40 -166 -22 -73 17
-126 -37 -73 -74 74 -52 249 28 352 163 156 203 275 479 276 636 0 75 -38 119
-70 80z"/>
<path d="M6600 2261 c-92 -29 -180 -105 -243 -212 -75 -127 -89 -262 -34 -317
25 -24 34 -27 95 -26 77 1 157 33 262 104 88 60 66 73 -36 22 -96 -49 -140
-61 -178 -51 -40 11 -46 24 -46 95 0 58 2 62 28 72 194 72 266 110 315 165 62
71 11 158 -92 156 -25 0 -57 -4 -71 -8z m56 -49 c41 -27 35 -80 -14 -129 -36
-36 -162 -103 -194 -103 -23 0 -17 30 24 118 30 64 58 98 93 112 25 11 77 12
91 2z"/>
<path d="M7760 2256 c-41 -16 -99 -49 -154 -88 -56 -40 -22 -48 40 -9 26 17
60 31 75 31 26 0 26 -1 18 -42 -4 -24 -29 -106 -54 -183 -55 -169 -64 -224
-40 -248 37 -38 153 -4 273 80 35 24 65 43 67 41 2 -2 -1 -23 -5 -48 -17 -89
34 -113 137 -65 29 13 63 34 75 45 13 12 36 28 52 37 21 11 25 18 17 26 -8 8
-16 8 -25 2 -61 -45 -95 -65 -116 -67 -21 -2 -26 2 -28 24 -3 23 55 231 78
283 16 35 50 144 50 160 0 11 -12 15 -50 15 -41 0 -50 -3 -50 -18 0 -10 -4
-22 -9 -27 -7 -8 -69 -191 -76 -225 -3 -18 -38 -70 -63 -96 -58 -61 -123 -98
-171 -99 -66 0 -66 8 9 235 41 123 57 207 44 228 -14 22 -49 25 -94 8z"/>
<path d="M9005 2248 c-71 -31 -138 -71 -143 -86 -6 -18 19 -15 67 9 53 25 91
19 126 -23 73 -87 133 -299 123 -432 -8 -100 -75 -187 -187 -243 -52 -26 -55
-26 -149 -15 -112 13 -147 4 -147 -38 0 -38 37 -52 121 -46 127 8 274 96 384
229 170 207 268 401 285 562 6 55 5 69 -10 85 -21 23 -52 25 -79 5 -19 -14
-19 -17 -3 -75 9 -33 17 -74 17 -92 0 -61 -38 -158 -105 -273 l-29 -49 -13 94
c-14 109 -43 200 -91 285 -35 63 -88 125 -106 125 -6 -1 -33 -10 -61 -22z"/>
<path d="M4471 1837 c-17 -34 -59 -96 -94 -137 -60 -70 -103 -109 -287 -261
-243 -199 -334 -338 -381 -580 -23 -120 -27 -288 -8 -300 11 -7 17 8 27 69 27
159 82 307 159 430 18 29 33 55 33 57 0 5 28 39 95 114 22 24 119 103 215 175
193 144 335 273 357 324 13 31 12 39 -8 90 -29 71 -37 82 -60 82 -12 0 -27
-20 -48 -63z"/>
<path d="M7360 1635 c-275 -47 -508 -195 -601 -381 -28 -57 -33 -77 -33 -143
-1 -65 3 -85 28 -132 32 -65 108 -142 181 -186 156 -93 468 -145 747 -124 281
22 478 63 953 199 261 75 439 121 620 161 497 108 963 171 1475 201 196 12
644 14 745 5 314 -30 529 -100 638 -207 49 -49 65 -79 76 -138 5 -29 11 -36
34 -38 44 -5 60 15 52 62 -21 133 -183 254 -423 315 -191 49 -318 61 -642 61
-237 0 -632 -17 -795 -35 -240 -25 -359 -40 -539 -65 -114 -17 -212 -32 -216
-35 -4 -3 -28 -7 -51 -10 -165 -21 -714 -151 -1014 -240 -517 -154 -851 -208
-1140 -185 -277 23 -462 92 -570 212 -95 106 -98 250 -8 385 93 141 249 229
476 269 142 24 446 14 592 -20 11 -2 49 -10 85 -17 79 -14 335 -81 443 -115
43 -13 86 -24 97 -24 22 0 55 30 43 40 -9 9 -163 56 -303 94 -137 36 -319 75
-435 91 -123 18 -412 18 -515 0z"/>
</g>
</svg>
